HIERARCHY
ROOT hip
{
	OFFSET 0.000000 0.000000 0.000000 
	CHANNELS 6 Xposition Yposition Zposition Xrotation Zrotation Yrotation
	JOINT abdomen
	{
		OFFSET 0.000000 3.402643 0.000000 
		CHANNELS 3 Xrotation Zrotation Yrotation
		JOINT chest
		{
			OFFSET 0.000000 8.438565 -0.680529 
			CHANNELS 3 Xrotation Zrotation Yrotation
			JOINT neck
			{
				OFFSET 0.000000 10.207942 -0.272212 
				CHANNELS 3 Xrotation Zrotation Yrotation
				JOINT head
				{
					OFFSET 0.000000 3.130431 0.000000 
					CHANNELS 3 Xrotation Zrotation Yrotation
					End Site
					{
						OFFSET 0.000000 3.130435 0.000000 
					}
				}
			}
			JOINT lCollar
			{
				OFFSET 3.470700 6.669187 -0.816635 
				CHANNELS 3 Yrotation Zrotation Xrotation
				JOINT lShldr
				{
					OFFSET 3.198488 0.000000 0.000000 
					CHANNELS 3 Zrotation Yrotation Xrotation
					JOINT lForeArm
					{
						OFFSET 10.139888 0.000000 0.000000 
						CHANNELS 3 Yrotation Zrotation Xrotation
						JOINT lHand
						{
							OFFSET 8.370511 0.000000 0.000000 
							CHANNELS 3 Zrotation Yrotation Xrotation
							End Site
							{
								OFFSET 4.083176 0.000000 0.000000 
							}
						}
					}
				}
			}
			JOINT rCollar
			{
				OFFSET -3.470700 6.669187 -0.816635 
				CHANNELS 3 Yrotation Zrotation Xrotation
				JOINT rShldr
				{
					OFFSET -3.198488 0.000000 0.000000 
					CHANNELS 3 Zrotation Yrotation Xrotation
					JOINT rForeArm
					{
						OFFSET -10.139888 0.000000 0.000000 
						CHANNELS 3 Yrotation Zrotation Xrotation
						JOINT rHand
						{
							OFFSET -8.370511 0.000000 0.000000 
							CHANNELS 3 Zrotation Yrotation Xrotation
							End Site
							{
								OFFSET -4.083176 0.000000 0.000000 
							}
						}
					}
				}
			}
		}
	}
	JOINT lThigh
	{
		OFFSET 5.308129 -1.633274 1.361059 
		CHANNELS 3 Xrotation Zrotation Yrotation
		JOINT lShin
		{
			OFFSET -2.041588 -20.007561 0.000000 
			CHANNELS 3 Xrotation Zrotation Yrotation
			JOINT lFoot
			{
				OFFSET 0.000000 -19.190928 -1.224953 
				CHANNELS 3 Xrotation Yrotation Zrotation
				End Site
				{
					OFFSET 0.000000 -2.449906 4.627600 
				}
			}
		}
	}
	JOINT rThigh
	{
		OFFSET -5.308129 -1.633274 1.361059 
		CHANNELS 3 Xrotation Zrotation Yrotation
		JOINT rShin
		{
			OFFSET 2.041588 -20.007561 0.000000 
			CHANNELS 3 Xrotation Zrotation Yrotation
			JOINT rFoot
			{
				OFFSET 0.000000 -19.190928 -1.224953 
				CHANNELS 3 Xrotation Yrotation Zrotation
				End Site
				{
					OFFSET 0.000000 -2.449906 4.627600 
				}
			}
		}
	}
}
MOTION
Frames: 20
Frame Time: 0.011111
4.753633 52.196484 5.246830 1.739811 2.184912 -35.196121 21.486103 0.770466 0.227069 -19.953856 0.312433 -0.149518 -17.347664 -5.639383 0.352679 14.270538 3.954171 -1.068168 2.424333 -4.683778 1.783845 -65.056114 -30.973108 36.216152 -52.016087 8.136032 8.977719 8.524705 12.647240 -52.757210 -2.738486 -1.140572 2.095526 71.423378 23.840698 30.131433 42.525372 -5.621544 5.297013 -8.534408 -12.637552 32.923683 4.716242 7.695576 1.263037 23.385355 -5.666728 -3.974784 -35.483360 11.376872 6.076315 -8.239492 -7.254643 18.603390 28.936899 5.374726 4.692507 -27.750286 -5.112434 -0.514926 
4.686269 52.183254 5.254951 1.431554 2.224808 -35.034931 21.504900 0.489717 0.141572 -19.924503 0.283214 -0.149045 -17.076216 -5.738835 0.336728 13.949340 4.258477 -1.080435 2.424333 -4.683778 1.783845 -65.028328 -31.080929 36.615742 -52.267265 8.181570 9.073166 8.524705 12.647240 -52.581432 -2.738486 -1.140572 2.095526 71.542221 23.828508 30.086792 42.341599 -5.557230 5.224159 -8.534408 -12.637552 32.894390 4.948545 7.585381 1.329598 23.528231 -5.657154 -3.986190 -35.245945 11.160624 5.833554 -8.053619 -7.410672 18.314665 29.195745 5.365783 4.742182 -27.845963 -5.067277 -0.500534 
4.610787 52.168522 5.271189 1.128061 2.206439 -35.012989 21.506834 0.202270 0.241013 -19.885460 0.293670 -0.090359 -16.940113 -5.758255 0.293723 13.772194 4.336311 -1.143410 2.424333 -4.683778 1.783845 -65.040298 -31.188202 36.972607 -52.519585 8.231780 9.176926 8.524705 12.647240 -52.727917 -2.738486 -1.140572 2.095526 71.539131 23.701588 30.623901 42.392235 -5.573248 5.250020 -8.534408 -12.637552 33.831890 5.193079 7.517379 1.419726 23.690948 -5.646933 -4.007963 -34.986198 11.077777 5.705539 -7.797901 -7.497481 18.084173 29.377527 5.345608 4.763553 -27.910074 -4.888399 -0.436956 
4.538311 52.160103 5.286225 0.881021 2.050750 -34.924095 21.546928 0.140793 0.321901 -19.885426 0.274435 -0.060868 -16.705837 -5.791659 0.262142 13.566092 4.349034 -1.190957 2.424333 -4.683778 1.783845 -65.091309 -31.255865 37.110619 -52.750290 8.273878 9.270872 8.524705 12.647240 -53.401741 -2.738486 -1.140572 2.095526 71.467545 23.615137 31.480820 42.321247 -5.552857 5.224877 -8.534408 -12.637552 35.062355 5.404893 7.620381 1.529351 23.903379 -5.638422 -4.035470 -34.707722 10.926606 5.511626 -7.447426 -7.419893 17.930447 29.567360 5.336412 4.787595 -28.028994 -4.879730 -0.460841 
4.482075 52.157394 5.294045 0.610799 1.828229 -34.640823 21.692442 0.256809 0.262141 -19.943830 0.176397 -0.089366 -16.461353 -5.835530 0.262619 13.321552 4.383191 -1.188645 2.424333 -4.683778 1.783845 -65.072159 -31.295193 37.959705 -52.950890 8.316334 9.363598 8.524705 12.647240 -51.888073 -2.738486 -1.140572 2.095526 71.368095 23.607389 32.375763 42.260014 -5.531275 5.201029 -8.534408 -12.637552 35.882675 5.629714 7.796447 1.657162 24.116045 -5.628244 -4.062557 -34.225132 10.792898 5.243523 -6.991395 -7.294510 17.738722 29.728220 5.325890 4.790073 -28.218256 -5.002953 -0.556429 
4.409598 52.156189 5.304570 0.257947 1.690227 -34.396919 21.778873 0.188432 0.110979 -19.904676 0.127227 -0.127801 -16.177902 -5.882651 0.248170 13.019279 4.524580 -1.187762 2.424333 -4.683778 1.783845 -65.015099 -31.432718 38.465954 -53.097626 8.340521 9.417771 8.524705 12.647240 -51.331432 -2.738486 -1.140572 2.095526 71.270996 23.697268 33.241421 42.188419 -5.503506 5.169470 -8.534408 -12.637552 36.331890 5.908010 7.871212 1.911698 24.376787 -5.627046 -4.095767 -33.669765 10.628066 4.944941 -6.516551 -7.290331 17.569704 29.887409 5.321424 4.812631 -28.428822 -5.042810 -0.619088 
4.318177 52.147766 5.319306 -0.096904 1.564907 -34.250504 21.768803 0.040371 0.033412 -19.797255 0.127466 -0.127562 -15.854133 -5.879132 0.193347 12.792242 4.514234 -1.271630 2.424333 -4.683778 1.783845 -65.027657 -31.569281 38.739635 -53.214241 8.365854 9.468935 8.524705 12.647240 -51.224014 -2.738486 -1.140572 2.095526 71.156158 23.875412 33.823181 41.994850 -5.439853 5.106020 -8.534408 -12.637552 36.458839 6.247591 7.907852 2.232251 24.631033 -5.608438 -4.124665 -33.139069 10.483274 4.669402 -6.050519 -7.301686 17.340658 30.057379 5.307169 4.853032 -28.545223 -4.981961 -0.617430 
4.221342 52.131226 5.342462 -0.428805 1.409134 -34.093441 21.671448 -0.085854 0.008220 -19.611652 0.098582 -0.126995 -15.619632 -5.875507 0.109994 12.740384 4.514093 -1.393129 2.424333 -4.683778 1.783845 -64.991982 -31.784647 39.222237 -53.318787 8.382116 9.511333 8.524705 12.647240 -50.843151 -2.738486 -1.140572 2.095526 71.011757 24.063904 34.423420 41.923935 -5.419028 5.081232 -8.534408 -12.637552 36.468605 6.599284 7.966667 2.506098 24.854559 -5.588934 -4.170111 -32.633854 10.351534 4.420522 -5.563225 -7.282755 17.112005 30.227640 5.296899 4.866082 -28.691507 -4.843436 -0.585612 
4.118793 52.112282 5.363513 -0.835126 1.343153 -33.920033 21.613390 -0.386592 -0.107537 -19.504320 0.147648 -0.126974 -15.462631 -5.876726 0.089277 12.799228 4.596433 -1.405165 2.424333 -4.683778 1.783845 -64.956879 -32.029308 39.680172 -53.267185 8.376625 9.489120 8.524705 12.647240 -50.755260 -2.738486 -1.140572 2.095526 70.807518 24.243809 35.246159 41.944889 -5.430782 5.086920 -8.534408 -12.637552 36.390488 6.926460 7.913353 2.638292 25.166626 -5.579093 -4.205911 -32.240757 10.243315 4.242136 -5.063545 -7.358799 16.981730 30.377554 5.287496 4.886497 -28.875017 -4.789674 -0.602876 
4.013237 52.097851 5.385466 -1.202253 1.247826 -33.765049 21.506886 -0.641923 -0.205512 -19.465479 0.264921 -0.127188 -15.265999 -5.889364 0.096757 12.966197 4.563760 -1.374780 2.424333 -4.683778 1.783845 -64.978271 -32.107151 40.227558 -53.182980 8.361578 9.456562 8.524705 12.647240 -50.882214 -2.738486 -1.140572 2.095526 70.553360 24.414902 35.735115 41.882877 -5.402158 5.065714 -8.534408 -12.637552 35.833843 7.142943 7.934281 2.769160 25.559973 -5.560123 -4.256537 -31.846111 10.224571 4.085755 -4.568948 -7.391325 16.880180 30.486300 5.287612 4.905797 -29.095421 -4.753424 -0.635168 
3.910086 52.084911 5.402608 -1.413623 0.950979 -33.745914 21.331726 -0.582942 -0.084971 -19.504578 0.284466 -0.098138 -14.854720 -5.957934 0.099951 13.044943 4.559443 -1.345208 2.424333 -4.683778 1.783845 -65.037582 -32.086796 40.658787 -53.130035 8.350712 9.436423 8.524705 12.647240 -50.960342 -2.738486 -1.140572 2.095526 70.267715 24.518190 35.949570 41.822327 -5.387412 5.048723 -8.534408 -12.637552 35.111183 7.268988 8.236668 3.164719 26.032507 -5.541179 -4.323808 -31.428108 10.101281 3.883403 -4.056324 -7.151125 16.832836 30.566784 5.277943 4.920930 -29.189100 -4.708002 -0.642084 
3.802125 52.067169 5.412832 -1.484034 0.449290 -33.881886 21.156897 -0.256341 0.241696 -19.514198 0.206499 -0.049082 -14.316735 -6.072831 0.106489 12.949013 4.674827 -1.293400 2.424333 -4.683778 1.783845 -65.069504 -32.193787 41.055370 -53.045830 8.335420 9.403990 8.524705 12.647240 -50.774788 -2.738486 -1.140572 2.095526 69.922890 24.642099 36.376747 41.862770 -5.397048 5.056798 -8.534408 -12.637552 34.613140 7.381731 8.798811 3.663609 26.525045 -5.520912 -4.383599 -31.120329 9.902514 3.686383 -3.552797 -6.599334 16.871561 30.656164 5.277071 4.928425 -29.238691 -4.626916 -0.610824 
3.703185 52.042213 5.416742 -1.686888 0.059674 -33.866070 21.069782 -0.117049 0.400642 -19.543386 0.148001 -0.019654 -14.012892 -6.101201 0.080802 13.174597 4.747638 -1.288080 2.424333 -4.683778 1.783845 -65.013969 -32.409431 41.561638 -52.919807 8.311275 9.341571 8.524705 12.647240 -50.452526 -2.738486 -1.140572 2.095526 69.600098 24.863192 36.589779 41.903824 -5.413932 5.071383 -8.534408 -12.637552 33.968609 7.518414 9.199298 3.965325 27.036963 -5.500714 -4.444191 -30.820265 9.642211 3.447305 -3.034331 -6.285374 16.752731 30.756397 5.267713 4.944465 -29.260685 -4.528882 -0.565250 
3.605147 52.012142 5.429373 -2.128388 -0.082371 -33.724506 21.001741 -0.334211 0.340889 -19.533621 0.148042 -0.009863 -13.864205 -6.038222 0.035044 13.583768 4.665854 -1.332570 2.424333 -4.683778 1.783845 -64.909248 -32.655052 42.193565 -52.793423 8.288025 9.300215 8.524705 12.647240 -50.218147 -2.738486 -1.140572 2.095526 69.220055 25.192732 37.054611 41.974743 -5.434776 5.097078 -8.534408 -12.637552 33.656113 7.797068 9.252360 4.204156 27.469570 -5.471777 -4.515061 -30.453249 9.275491 3.173559 -2.538545 -6.327857 16.448357 30.916393 5.258338 4.956003 -29.275427 -4.407955 -0.502683 
3.492373 51.979660 5.464858 -2.546346 -0.187396 -33.603504 20.757689 -0.528245 0.219822 -19.465424 0.235891 -0.029454 -13.587857 -6.028591 0.045478 13.877379 4.483247 -1.286013 2.424333 -4.683778 1.783845 -64.972588 -32.839748 42.581226 -52.583233 8.247091 9.206109 8.524705 12.647240 -50.413467 -2.738486 -1.140572 2.095526 68.661537 25.554771 37.567467 42.106861 -5.477349 5.145574 -8.534408 -12.637552 33.314308 8.120443 9.254333 4.326950 27.880703 -5.452558 -4.566888 -30.150784 9.011455 2.948814 -2.057365 -6.399058 16.162252 31.155373 5.252914 4.966572 -29.347509 -4.209587 -0.411566 
3.379900 51.950493 5.490421 -2.841699 -0.261048 -33.529877 20.396736 -0.702836 0.131489 -19.348364 0.304303 -0.038780 -13.311037 -6.000229 0.051540 14.141685 4.361750 -1.249624 2.424333 -4.683778 1.783845 -64.977753 -33.103386 42.874180 -52.393417 8.206842 9.124959 8.524705 12.647240 -50.618538 -2.738486 -1.140572 2.095526 68.134918 26.023462 37.630821 42.229515 -5.520162 5.184251 -8.534408 -12.637552 32.415874 8.267342 9.322792 4.427379 28.261679 -5.433142 -4.615955 -29.829191 8.862172 2.772250 -1.775522 -6.402304 15.981453 31.484188 5.228946 5.037565 -29.497974 -3.991402 -0.343392 
3.272540 51.924927 5.492827 -3.175031 -0.238982 -33.550941 20.048239 -1.069650 0.172830 -19.280149 0.382449 0.010455 -13.007548 -6.023436 0.004576 14.424123 4.354984 -1.289169 2.424333 -4.683778 1.783845 -64.894104 -33.407314 43.365509 -52.215469 8.175632 9.059804 8.524705 12.647240 -50.804085 -2.738486 -1.140572 2.095526 67.567261 26.453611 37.840427 42.443104 -5.588626 5.267120 -8.534408 -12.637552 32.396343 8.404728 9.294029 4.702478 28.682465 -5.413650 -4.659630 -29.399736 8.783135 2.601844 -1.560820 -6.499846 15.854642 31.813505 5.209244 5.071560 -29.610088 -3.752335 -0.247040 
3.163074 51.894852 5.503653 -3.663657 -0.299047 -33.554634 19.836367 -1.413539 0.179892 -19.241085 0.382407 0.040012 -12.623554 -5.985375 -0.045860 14.647928 4.285392 -1.325134 2.424333 -4.683778 1.783845 -64.750511 -33.702290 43.840206 -52.078606 8.146033 8.998921 8.524705 12.647240 -51.028698 -2.738486 -1.140572 2.095526 66.959381 26.884230 38.257977 42.759487 -5.693237 5.380110 -8.534408 -12.637552 32.845562 8.747966 9.227326 5.004211 29.123398 -5.384700 -4.730906 -28.973150 8.649095 2.416805 -1.161445 -6.599160 15.721364 32.142044 5.189236 5.124781 -29.711121 -3.610895 -0.207491 
3.048796 51.865685 5.507864 -4.022203 -0.526115 -33.543037 19.680996 -1.506970 0.182830 -19.221588 0.401910 0.049939 -12.221512 -6.102479 0.014951 14.740912 4.463571 -1.167738 2.424333 -4.683778 1.783845 -64.668785 -34.103851 44.058205 -51.921219 8.114863 8.936993 8.524705 12.647240 -51.126358 -2.738486 -1.140572 2.095526 66.386154 27.558187 38.139484 42.954098 -5.761652 5.452174 -8.534408 -12.637552 32.503769 9.012589 9.384536 5.218713 29.574160 -5.355750 -4.793183 -28.539503 8.581135 2.269115 -0.711601 -6.409536 15.779062 32.451794 5.160737 5.174034 -29.828625 -3.712475 -0.285041 
2.931512 51.841629 5.525907 -4.382275 -0.692392 -33.505325 19.437664 -1.632010 0.188381 -19.104219 0.304081 0.069938 -11.885235 -6.096066 0.057615 14.923022 4.692934 -1.011270 2.424333 -4.683778 1.783845 -64.479004 -34.585011 44.385174 -51.669205 8.060895 8.825133 8.524705 12.647240 -51.429092 -2.738486 -1.140572 2.095526 65.913498 28.298622 37.882660 43.076130 -5.796206 5.494440 -8.534408 -12.637552 32.728374 9.237485 9.511143 5.399249 30.053099 -5.336323 -4.850549 -28.072170 8.568200 2.133796 -0.272760 -6.307065 15.695715 32.700546 5.150282 5.192750 -29.858114 -3.806638 -0.353847 
